<svg id="svg" xmlns="http://www.w3.org/2000/svg" xmlns:xlink="http://www.w3.org/1999/xlink" width="400" height="400" viewBox="0, 0, 400,400" version="1.1"><g id="svgg"><path id="path0" d="M188.235 49.601 C 140.956 56.777,126.605 81.485,124.796 158.824 L 123.529 212.941 117.079 213.684 C 112.036 214.264,110.019 213.089,107.836 208.298 C 104.821 201.681,98.178 201.107,96.974 207.360 C 94.448 220.476,116.216 230.211,127.762 221.128 L 133.806 216.374 134.550 161.717 C 135.257 109.795,135.569 106.529,140.789 96.471 C 166.990 45.986,231.861 45.338,258.445 95.294 C 264.630 106.916,264.715 107.721,265.450 161.717 L 266.194 216.374 272.238 221.128 C 283.784 230.211,305.552 220.476,303.026 207.360 C 301.822 201.107,295.179 201.681,292.164 208.298 C 289.981 213.089,287.964 214.264,282.921 213.684 L 276.471 212.941 275.217 160.000 C 274.087 112.309,273.441 105.775,268.696 94.118 C 255.636 62.026,223.504 44.248,188.235 49.601 M173.333 173.333 C 168.215 178.452,173.436 188.235,181.286 188.235 C 184.594 188.235,188.356 179.522,186.799 175.465 C 185.385 171.781,176.321 170.346,173.333 173.333 M212.901 176.596 C 210.655 183.672,217.286 190.357,222.985 186.763 C 225.226 185.349,227.059 181.661,227.059 178.567 C 227.059 170.684,215.298 169.046,212.901 176.596 M154.510 218.039 C 153.647 218.902,152.941 233.120,152.941 249.636 C 152.941 273.032,152.171 280.434,149.453 283.152 C 144.661 287.944,136.722 285.350,134.984 278.425 C 133.376 272.019,126.410 271.710,125.201 277.991 C 122.577 291.617,148.958 300.726,158.154 289.370 C 167.054 278.379,163.511 209.038,154.510 218.039 M182.745 218.039 C 181.882 218.902,181.176 245.826,181.176 277.871 C 181.176 326.216,180.583 336.728,177.688 339.622 C 172.929 344.381,164.962 341.838,163.249 335.013 C 161.503 328.057,152.941 327.204,152.941 333.986 C 152.941 350.645,182.495 357.452,188.319 342.134 C 192.071 332.265,191.271 216.471,187.451 216.471 C 185.725 216.471,183.608 217.176,182.745 218.039 M209.412 263.512 C 209.412 313.889,210.243 318.235,220.539 321.698 C 232.914 325.861,250.035 314.680,246.278 304.890 C 244.494 300.239,237.647 299.987,237.647 304.572 C 237.647 310.099,228.224 315.454,223.215 312.773 C 219.318 310.687,218.864 306.200,218.285 264.092 C 217.707 222.082,217.259 217.634,213.529 216.917 C 209.718 216.184,209.412 219.649,209.412 263.512 M237.647 236.405 C 237.647 263.099,244.645 271.663,262.533 266.859 C 268.393 265.285,276.233 252.899,274.396 248.113 C 272.748 243.818,265.882 243.623,265.882 247.871 C 265.882 254.036,257.334 259.451,252.059 256.628 C 247.965 254.437,247.154 251.371,246.569 235.878 C 245.998 220.759,245.189 217.566,241.765 216.912 C 238.101 216.212,237.647 218.360,237.647 236.405 " stroke="none" fill="#000000" fill-rule="evenodd"></path></g></svg>